<svg width="26" height="26" fill="none" xmlns="http://www.w3.org/2000/svg"><g clip-path="url(#clip0_2_148)"><path d="M16.872 4.12c.828-1.001 1.41-2.36 1.38-3.745a.387.387 0 00-.446-.37c-1.216.185-2.574.946-3.414 1.93-.775.896-1.463 2.289-1.411 3.668a.383.383 0 00.391.368c1.341-.038 2.665-.84 3.5-1.851z" fill="#D6D6D8"/><path d="M14.027 5.603C13.947 3.464 15.561.966 18.18.161a.39.39 0 00-.374-.156c-1.215.185-2.574.946-3.414 1.93-.775.896-1.463 2.289-1.411 3.668a.383.383 0 00.391.368c.26-.007.52-.044.775-.105a.381.381 0 01-.12-.263z" fill="#C2C2C4"/><path d="M23.344 18.927c-.841-.424-3.165-1.887-3.194-5.131-.024-2.656 1.738-4.2 2.487-4.739a.386.386 0 00.082-.551 5.634 5.634 0 00-2.05-1.633 6.988 6.988 0 00-.37-.16c-3.52-1.386-5.738.738-7.082.738-1.028 0-2.616-1.162-4.298-1.13-2.21.031-4.247 1.285-5.387 3.264-1.748 3.035-1.172 7.184.19 10.418.036.083.091.212.138.316.394.886.846 1.696 1.322 2.385 1.094 1.58 2.398 3.36 4.111 3.294 1.65-.065 2.273-1.066 4.266-1.066 1.992 0 2.554 1.066 4.297 1.035 1.776-.034 2.9-1.613 3.985-3.2a14.536 14.536 0 001.694-3.37.385.385 0 00-.19-.47z" fill="#D6D6D8"/><path d="M6.229 22.704a14.847 14.847 0 01-1.323-2.385 19.973 19.973 0 01-.137-.316c-1.354-3.213-1.945-7.372-.19-10.418 1.053-1.827 2.87-3.036 4.883-3.235a3.929 3.929 0 00-.543-.03c-2.21.032-4.247 1.286-5.387 3.265-1.748 3.035-1.172 7.184.19 10.418a19.509 19.509 0 00.138.316c.394.886.846 1.696 1.322 2.385 1.094 1.58 2.398 3.36 4.111 3.294.169-.006.326-.023.476-.047-1.438-.292-2.572-1.848-3.54-3.247z" fill="#C2C2C4"/></g><defs><clipPath id="clip0_2_148"><path fill="#fff" d="M0 0h26v26H0z"/></clipPath></defs></svg>