<svg width="24" height="26" fill="none" xmlns="http://www.w3.org/2000/svg"><path d="M17.425 13L1.41.577A2.653 2.653 0 00.385 2.69v20.62a2.65 2.65 0 001.026 2.112L17.425 13z" fill="#9DC6FB"/><path d="M22.272 10.674l-3.875-2.237-3.396.424L13.834 13l.593 3.962 3.97.6 3.875-2.236c1.79-1.034 1.79-3.618 0-4.652z" fill="#FFE07D"/><path d="M18.397 8.437L4.414.364a2.671 2.671 0 00-3.003.213L13.834 13l4.563-4.563z" fill="#DD5790"/><path d="M18.397 17.563L13.834 13 1.411 25.422a2.67 2.67 0 003.003.214l13.983-8.073z" fill="#95D6A4"/><path d="M3.412 2.69c0-.18.017-.355.05-.522L1.412.578A2.652 2.652 0 00.384 2.69v20.62c0 .888.413 1.633 1.026 2.112l2.05-1.59a2.739 2.739 0 01-.049-.522V2.69z" fill="#80B4FB"/><path d="M4.592.466L4.414.364a2.673 2.673 0 00-3.003.214L3.415 2.58A2.65 2.65 0 014.438.578c.05-.04.102-.077.154-.112z" fill="#DA387D"/><path d="M4.439 25.422a2.65 2.65 0 01-1.024-2.003L1.41 25.422a2.67 2.67 0 003.003.214l.178-.102a2.63 2.63 0 01-.153-.112z" fill="#78C2A4"/></svg>