<svg width="88" height="16" fill="none" xmlns="http://www.w3.org/2000/svg"><path d="M88 6.182L82.186 5.8 79.996.3l-2.189 5.5L72 6.182l4.454 3.782-1.461 5.737 5.004-3.163L85 15.7l-1.46-5.736L88 6.182z" fill="#C4C4C4"/><path d="M70 6.182L64.186 5.8 61.996.3l-2.189 5.5L54 6.182l4.454 3.782-1.461 5.737 5.004-3.163L67 15.7l-1.46-5.736L70 6.182zm-18 0L46.186 5.8 43.996.3l-2.189 5.5L36 6.182l4.454 3.782-1.461 5.737 5.004-3.163L49 15.7l-1.46-5.736L52 6.182zm-18 0L28.186 5.8 25.996.3l-2.189 5.5L18 6.182l4.454 3.782-1.461 5.737 5.004-3.163L31 15.7l-1.46-5.736L34 6.182zm-18 0L10.186 5.8 7.996.3 5.808 5.8 0 6.182l4.454 3.782L2.993 15.7l5.004-3.163L13 15.7l-1.46-5.736L16 6.182z" fill="#DC780B"/></svg>