<svg width="13" height="11" fill="none" xmlns="http://www.w3.org/2000/svg"><path d="M12.932 1.546c-.45.2-.934.335-1.442.395.518-.31.916-.802 1.104-1.388A5.023 5.023 0 0111 1.16a2.51 2.51 0 00-4.277 2.29A7.124 7.124 0 011.55.828a2.51 2.51 0 00.777 3.35 2.492 2.492 0 01-1.137-.313v.032a2.51 2.51 0 002.013 2.46 2.5 2.5 0 01-1.133.044 2.512 2.512 0 002.344 1.743A5.036 5.036 0 01.7 9.183a7.1 7.1 0 003.846 1.128c4.617 0 7.141-3.825 7.141-7.141 0-.11-.002-.218-.007-.325a5.09 5.09 0 001.253-1.299z" fill="#F1F2F2"/></svg>