<svg width="13" height="13" viewBox="0 0 13 13" fill="none" xmlns="http://www.w3.org/2000/svg">
<path d="M8.92923 0.48999H4.07073C2.09623 0.48999 0.489899 2.09633 0.489899 4.07082V8.92932C0.489899 10.9037 2.09623 12.5102 4.07077 12.5102H8.92927C10.9037 12.5102 12.5101 10.9038 12.5101 8.92932V4.07082C12.5101 2.09633 10.9037 0.48999 8.92923 0.48999ZM11.3009 8.92937C11.3009 10.2392 10.2391 11.301 8.92927 11.301H4.07077C2.76097 11.301 1.69916 10.2392 1.69916 8.92937V4.07086C1.69916 2.76107 2.76097 1.69921 4.07077 1.69921H8.92927C10.2391 1.69921 11.3009 2.76111 11.3009 4.07086V8.92937Z" fill="white"/>
</svg>
