<svg width="13" height="11" viewBox="0 0 13 11" fill="none" xmlns="http://www.w3.org/2000/svg">
<path d="M12.9317 1.54607C12.4817 1.74559 11.9977 1.88054 11.4901 1.94081C12.0083 1.6303 12.4061 1.13897 12.5938 0.552568C12.1089 0.840249 11.5715 1.04895 11.0001 1.16143C10.5422 0.673855 9.88994 0.369141 9.16765 0.369141C7.78184 0.369141 6.65788 1.4931 6.65788 2.87891C6.65788 3.07563 6.68015 3.26711 6.7232 3.45091C4.63737 3.34628 2.78793 2.34716 1.54999 0.82827C1.33399 1.19887 1.21009 1.6303 1.21009 2.09018C1.21009 2.96071 1.65349 3.72923 2.32656 4.17919C1.91534 4.16627 1.52809 4.05341 1.18987 3.86493C1.18968 3.8756 1.18968 3.88627 1.18968 3.89675C1.18968 5.1128 2.05516 6.12708 3.20308 6.35748C2.9927 6.41513 2.77053 6.44564 2.54199 6.44564C2.3799 6.44564 2.22287 6.4301 2.06976 6.40091C2.38907 7.39778 3.31576 8.12344 4.41426 8.14384C3.55515 8.81709 2.47311 9.2182 1.29693 9.2182C1.09479 9.2182 0.894515 9.20641 0.698547 9.18301C1.80866 9.89538 3.12821 10.3107 4.54547 10.3107C9.16185 10.3107 11.6864 6.48644 11.6864 3.16959C11.6864 3.06084 11.684 2.95247 11.6791 2.84504C12.1699 2.49128 12.5953 2.04937 12.9317 1.54607Z" fill="#F1F2F2"/>
</svg>
